<?xml version="1.0" encoding="UTF-8" standalone="no"?>
<!DOCTYPE svg PUBLIC "-//W3C//DTD SVG 1.1//EN" "http://www.w3.org/Graphics/SVG/1.1/DTD/svg11.dtd">
<svg width="100%" height="100%" viewBox="0 0 402 213" version="1.1" xmlns="http://www.w3.org/2000/svg" xmlns:xlink="http://www.w3.org/1999/xlink" xml:space="preserve" xmlns:serif="http://www.serif.com/" style="fill-rule:evenodd;clip-rule:evenodd;stroke-linejoin:round;stroke-miterlimit:2;">
    <g transform="matrix(1,0,0,1,-55,-1024)">
        <g id="Plan-de-travail2" serif:id="Plan de travail2" transform="matrix(0.933474,0,0,0.415028,-454.071,1024.06)">
            <rect x="545.616" y="0" width="430.204" height="512"/>
            <g transform="matrix(1.27495,0,0,2.40947,-209.202,-437.381)">
                <g transform="matrix(1,0,0,1,0,47.3093)">
                    <g transform="matrix(0.628347,0,0,0.747817,257.411,24.8525)">
                        <path d="M724.633,288.307L700.254,257.418L801,147.912L902.151,257.914L876.691,288.318L801,209.713L724.633,288.307Z" style="fill:white;"/>
                    </g>
                    <g transform="matrix(0.840242,0,0,1,87.6837,28.781)">
                        <path d="M988.858,279.779C977.786,277.303 960.929,273.738 943.894,270.91L901.342,218.779L856.913,273.21C841.955,276.836 826.965,280.83 811.825,282.231L901.342,172.563L988.858,279.779Z" style="fill:white;"/>
                    </g>
                    <g transform="matrix(0.840242,0,0,1,87.6837,28.781)">
                        <path d="M790.184,282.242C775.447,280.915 760.433,277.207 745.497,273.712L700.658,218.779L658.411,270.537C641.416,273.371 624.423,277.069 613.247,279.651L700.658,172.563L790.184,282.242Z" style="fill:white;"/>
                    </g>
                </g>
                <g transform="matrix(0.840242,0,0,1,87.6837,-1.7769)">
                    <path d="M1001.68,395.446C1001.68,395.446 934.79,379.09 901.342,379.09C867.895,379.09 834.889,395.446 801,395.446C767.06,395.446 731.148,379.09 697.7,379.09C664.784,379.09 600.316,395.446 600.316,395.446L600.316,371.655C600.316,371.655 664.784,355.298 697.7,355.298C731.148,355.298 767.06,371.655 801,371.655C834.889,371.655 867.895,355.298 901.342,355.298C934.79,355.298 1001.68,371.655 1001.68,371.655L1001.68,395.446Z" style="fill:white;"/>
                </g>
            </g>
        </g>
    </g>
</svg>
